<mxfile host="app.diagrams.net" agent="Mozilla/5.0 (Windows NT 10.0; Win64; x64) AppleWebKit/537.36 (KHTML, like Gecko) Chrome/137.0.0.0 Safari/537.36" version="27.1.6">
  <diagram name="Page-1" id="2YBvvXClWsGukQMizWep">
    <mxGraphModel dx="2568" dy="940" grid="1" gridSize="10" guides="1" tooltips="1" connect="1" arrows="1" fold="1" page="1" pageScale="1" pageWidth="850" pageHeight="1100" math="0" shadow="0">
      <root>
        <mxCell id="0" />
        <mxCell id="1" parent="0" />
        <mxCell id="aM9ryv3xv72pqoxQDRHE-7" value="1. Accede a /gestion/pacientes/nPaciente/" style="html=1;verticalAlign=bottom;endArrow=block;edgeStyle=elbowEdgeStyle;elbow=vertical;curved=0;rounded=0;" parent="1" source="_3x8DuWusRS5NxOKMBlc-31" target="_3x8DuWusRS5NxOKMBlc-32" edge="1">
          <mxGeometry x="0.0037" relative="1" as="geometry">
            <mxPoint x="130" y="150" as="sourcePoint" />
            <Array as="points">
              <mxPoint x="180" y="120" />
            </Array>
            <mxPoint x="470" y="120" as="targetPoint" />
            <mxPoint as="offset" />
          </mxGeometry>
        </mxCell>
        <mxCell id="aM9ryv3xv72pqoxQDRHE-8" value="14. Muestra ficha de paciente actualizada" style="html=1;verticalAlign=bottom;endArrow=open;dashed=1;endSize=8;edgeStyle=elbowEdgeStyle;elbow=vertical;curved=0;rounded=0;" parent="1" target="_3x8DuWusRS5NxOKMBlc-31" edge="1">
          <mxGeometry x="0.0003" relative="1" as="geometry">
            <mxPoint x="-249.99666666666673" y="450" as="targetPoint" />
            <Array as="points">
              <mxPoint x="171.17" y="450" />
              <mxPoint x="191.17" y="410" />
            </Array>
            <mxPoint x="295.67" y="450" as="sourcePoint" />
            <mxPoint as="offset" />
          </mxGeometry>
        </mxCell>
        <mxCell id="_3x8DuWusRS5NxOKMBlc-3" value="" style="shape=umlLifeline;perimeter=lifelinePerimeter;whiteSpace=wrap;html=1;container=1;dropTarget=0;collapsible=0;recursiveResize=0;outlineConnect=0;portConstraint=eastwest;newEdgeStyle={&quot;curved&quot;:0,&quot;rounded&quot;:0};participant=umlActor;" vertex="1" parent="1">
          <mxGeometry x="-300" y="25" width="20" height="450" as="geometry" />
        </mxCell>
        <mxCell id="_3x8DuWusRS5NxOKMBlc-31" value="" style="html=1;points=[[0,0,0,0,5],[0,1,0,0,-5],[1,0,0,0,5],[1,1,0,0,-5]];perimeter=orthogonalPerimeter;outlineConnect=0;targetShapes=umlLifeline;portConstraint=eastwest;newEdgeStyle={&quot;curved&quot;:0,&quot;rounded&quot;:0};" vertex="1" parent="_3x8DuWusRS5NxOKMBlc-3">
          <mxGeometry x="5" y="70" width="10" height="360" as="geometry" />
        </mxCell>
        <mxCell id="_3x8DuWusRS5NxOKMBlc-6" value="6. Selecciona &quot;consulta&quot; o &quot;procedimiento&quot; y accede a /gestion/pacientes/nPaciente/atencion/nueva/general/ }" style="html=1;verticalAlign=bottom;endArrow=block;edgeStyle=elbowEdgeStyle;elbow=vertical;curved=0;rounded=0;" edge="1" parent="1" source="_3x8DuWusRS5NxOKMBlc-31" target="_3x8DuWusRS5NxOKMBlc-32">
          <mxGeometry x="0.0288" relative="1" as="geometry">
            <mxPoint x="-251.16666666666674" y="230" as="sourcePoint" />
            <Array as="points">
              <mxPoint x="200" y="230" />
              <mxPoint x="240" y="210" />
              <mxPoint x="180" y="190" />
            </Array>
            <mxPoint x="294.5" y="230" as="targetPoint" />
            <mxPoint as="offset" />
          </mxGeometry>
        </mxCell>
        <mxCell id="_3x8DuWusRS5NxOKMBlc-7" value="9. Rellena Campos Obligatorios" style="html=1;verticalAlign=bottom;endArrow=block;edgeStyle=elbowEdgeStyle;elbow=vertical;curved=0;rounded=0;" edge="1" parent="1" source="_3x8DuWusRS5NxOKMBlc-31" target="_3x8DuWusRS5NxOKMBlc-32">
          <mxGeometry x="0.0003" relative="1" as="geometry">
            <mxPoint x="-249.99666666666673" y="370" as="sourcePoint" />
            <Array as="points">
              <mxPoint x="191.17" y="370" />
              <mxPoint x="181.17" y="350" />
            </Array>
            <mxPoint x="295.67" y="370" as="targetPoint" />
            <mxPoint as="offset" />
          </mxGeometry>
        </mxCell>
        <mxCell id="_3x8DuWusRS5NxOKMBlc-8" value="V_nPaciente" style="shape=umlLifeline;perimeter=lifelinePerimeter;whiteSpace=wrap;html=1;container=1;dropTarget=0;collapsible=0;recursiveResize=0;outlineConnect=0;portConstraint=eastwest;newEdgeStyle={&quot;curved&quot;:0,&quot;rounded&quot;:0};" vertex="1" parent="1">
          <mxGeometry x="245" y="40" width="100" height="440" as="geometry" />
        </mxCell>
        <mxCell id="_3x8DuWusRS5NxOKMBlc-32" value="" style="html=1;points=[[0,0,0,0,5],[0,1,0,0,-5],[1,0,0,0,5],[1,1,0,0,-5]];perimeter=orthogonalPerimeter;outlineConnect=0;targetShapes=umlLifeline;portConstraint=eastwest;newEdgeStyle={&quot;curved&quot;:0,&quot;rounded&quot;:0};" vertex="1" parent="_3x8DuWusRS5NxOKMBlc-8">
          <mxGeometry x="45" y="60" width="10" height="370" as="geometry" />
        </mxCell>
        <mxCell id="_3x8DuWusRS5NxOKMBlc-10" value="C_nPaciente" style="shape=umlLifeline;perimeter=lifelinePerimeter;whiteSpace=wrap;html=1;container=1;dropTarget=0;collapsible=0;recursiveResize=0;outlineConnect=0;portConstraint=eastwest;newEdgeStyle={&quot;curved&quot;:0,&quot;rounded&quot;:0};" vertex="1" parent="1">
          <mxGeometry x="655" y="40" width="100" height="440" as="geometry" />
        </mxCell>
        <mxCell id="_3x8DuWusRS5NxOKMBlc-33" value="" style="html=1;points=[[0,0,0,0,5],[0,1,0,0,-5],[1,0,0,0,5],[1,1,0,0,-5]];perimeter=orthogonalPerimeter;outlineConnect=0;targetShapes=umlLifeline;portConstraint=eastwest;newEdgeStyle={&quot;curved&quot;:0,&quot;rounded&quot;:0};" vertex="1" parent="_3x8DuWusRS5NxOKMBlc-10">
          <mxGeometry x="45" y="60" width="10" height="130" as="geometry" />
        </mxCell>
        <mxCell id="_3x8DuWusRS5NxOKMBlc-37" value="" style="html=1;points=[[0,0,0,0,5],[0,1,0,0,-5],[1,0,0,0,5],[1,1,0,0,-5]];perimeter=orthogonalPerimeter;outlineConnect=0;targetShapes=umlLifeline;portConstraint=eastwest;newEdgeStyle={&quot;curved&quot;:0,&quot;rounded&quot;:0};" vertex="1" parent="_3x8DuWusRS5NxOKMBlc-10">
          <mxGeometry x="45" y="220" width="10" height="80" as="geometry" />
        </mxCell>
        <mxCell id="_3x8DuWusRS5NxOKMBlc-38" value="" style="html=1;points=[[0,0,0,0,5],[0,1,0,0,-5],[1,0,0,0,5],[1,1,0,0,-5]];perimeter=orthogonalPerimeter;outlineConnect=0;targetShapes=umlLifeline;portConstraint=eastwest;newEdgeStyle={&quot;curved&quot;:0,&quot;rounded&quot;:0};" vertex="1" parent="_3x8DuWusRS5NxOKMBlc-10">
          <mxGeometry x="45" y="320" width="10" height="80" as="geometry" />
        </mxCell>
        <mxCell id="_3x8DuWusRS5NxOKMBlc-12" value="10. Envia datos del formulario" style="html=1;verticalAlign=bottom;endArrow=block;edgeStyle=elbowEdgeStyle;elbow=vertical;curved=0;rounded=0;" edge="1" parent="1" source="_3x8DuWusRS5NxOKMBlc-32" target="_3x8DuWusRS5NxOKMBlc-38">
          <mxGeometry x="0.0043" relative="1" as="geometry">
            <mxPoint x="297.0033333333335" y="390" as="sourcePoint" />
            <Array as="points">
              <mxPoint x="423.17" y="390" />
            </Array>
            <mxPoint x="552.67" y="390" as="targetPoint" />
            <mxPoint as="offset" />
          </mxGeometry>
        </mxCell>
        <mxCell id="_3x8DuWusRS5NxOKMBlc-13" value="2. Solicitud de registro de atenciÃ³n" style="html=1;verticalAlign=bottom;endArrow=block;edgeStyle=elbowEdgeStyle;elbow=vertical;curved=0;rounded=0;" edge="1" parent="1">
          <mxGeometry x="0.0057" relative="1" as="geometry">
            <mxPoint x="300" y="140" as="sourcePoint" />
            <Array as="points">
              <mxPoint x="320" y="140" />
            </Array>
            <mxPoint x="700" y="140" as="targetPoint" />
            <mxPoint as="offset" />
          </mxGeometry>
        </mxCell>
        <mxCell id="_3x8DuWusRS5NxOKMBlc-14" value="13. Redirige a ficha del paciente" style="html=1;verticalAlign=bottom;endArrow=open;dashed=1;endSize=8;edgeStyle=elbowEdgeStyle;elbow=vertical;curved=0;rounded=0;" edge="1" parent="1" source="_3x8DuWusRS5NxOKMBlc-38" target="_3x8DuWusRS5NxOKMBlc-32">
          <mxGeometry relative="1" as="geometry">
            <mxPoint x="297.0033333333335" y="430" as="targetPoint" />
            <Array as="points">
              <mxPoint x="413.17" y="410" />
              <mxPoint x="433.17" y="390" />
            </Array>
            <mxPoint x="553" y="430" as="sourcePoint" />
          </mxGeometry>
        </mxCell>
        <mxCell id="_3x8DuWusRS5NxOKMBlc-15" value="5. Redirige a /gestion/pacientes/nPacientes/atencion/seleccionar-tipo/&lt;span style=&quot;color: rgba(0, 0, 0, 0); font-family: monospace; font-size: 0px; text-align: start; background-color: rgb(236, 236, 236);&quot;&gt;%3CmxGraphModel%3E%3Croot%3E%3CmxCell%20id%3D%220%22%2F%3E%3CmxCell%20id%3D%221%22%20parent%3D%220%22%2F%3E%3CmxCell%20id%3D%222%22%20value%3D%22dispatch%22%20style%3D%22html%3D1%3BverticalAlign%3Dbottom%3BendArrow%3Dblock%3BedgeStyle%3DelbowEdgeStyle%3Belbow%3Dvertical%3Bcurved%3D0%3Brounded%3D0%3B%22%20edge%3D%221%22%20parent%3D%221%22%3E%3CmxGeometry%20x%3D%220.0043%22%20relative%3D%221%22%20as%3D%22geometry%22%3E%3CmxPoint%20x%3D%22297.0033333333335%22%20y%3D%22390%22%20as%3D%22sourcePoint%22%2F%3E%3CArray%20as%3D%22points%22%3E%3CmxPoint%20x%3D%22423.17%22%20y%3D%22390%22%2F%3E%3C%2FArray%3E%3CmxPoint%20x%3D%22552.67%22%20y%3D%22390%22%20as%3D%22targetPoint%22%2F%3E%3CmxPoint%20as%3D%22offset%22%2F%3E%3C%2FmxGeometry%3E%3C%2FmxCell%3E%3CmxCell%20id%3D%223%22%20value%3D%22return%22%20style%3D%22html%3D1%3BverticalAlign%3Dbottom%3BendArrow%3Dopen%3Bdashed%3D1%3BendSize%3D8%3BedgeStyle%3DelbowEdgeStyle%3Belbow%3Dvertical%3Bcurved%3D0%3Brounded%3D0%3B%22%20edge%3D%221%22%20parent%3D%221%22%3E%3CmxGeometry%20relative%3D%221%22%20as%3D%22geometry%22%3E%3CmxPoint%20x%3D%22297.0033333333335%22%20y%3D%22430%22%20as%3D%22targetPoint%22%2F%3E%3CArray%20as%3D%22points%22%3E%3CmxPoint%20x%3D%22383.17%22%20y%3D%22430%22%2F%3E%3CmxPoint%20x%3D%22413.17%22%20y%3D%22410%22%2F%3E%3CmxPoint%20x%3D%22433.17%22%20y%3D%22390%22%2F%3E%3C%2FArray%3E%3CmxPoint%20x%3D%22552.67%22%20y%3D%22430%22%20as%3D%22sourcePoint%22%2F%3E%3C%2FmxGeometry%3E%3C%2FmxCell%3E%3C%2Froot%3E%3C%2FmxGraphModel%3E n&lt;/span&gt;" style="html=1;verticalAlign=bottom;endArrow=open;dashed=1;endSize=8;edgeStyle=elbowEdgeStyle;elbow=vertical;curved=0;rounded=0;" edge="1" parent="1">
          <mxGeometry x="0.0244" relative="1" as="geometry">
            <mxPoint x="300" y="200" as="targetPoint" />
            <Array as="points">
              <mxPoint x="343.17" y="200" />
              <mxPoint x="413.17" y="180" />
              <mxPoint x="433.17" y="160" />
            </Array>
            <mxPoint x="700" y="200" as="sourcePoint" />
            <mxPoint as="offset" />
          </mxGeometry>
        </mxCell>
        <mxCell id="_3x8DuWusRS5NxOKMBlc-16" value="&lt;code data-end=&quot;613&quot; data-start=&quot;579&quot;&gt;gestion_historicalatencionmedica&lt;/code&gt;" style="shape=umlLifeline;perimeter=lifelinePerimeter;whiteSpace=wrap;html=1;container=1;dropTarget=0;collapsible=0;recursiveResize=0;outlineConnect=0;portConstraint=eastwest;newEdgeStyle={&quot;curved&quot;:0,&quot;rounded&quot;:0};" vertex="1" parent="1">
          <mxGeometry x="840" y="40" width="260" height="425" as="geometry" />
        </mxCell>
        <mxCell id="_3x8DuWusRS5NxOKMBlc-34" value="" style="html=1;points=[[0,0,0,0,5],[0,1,0,0,-5],[1,0,0,0,5],[1,1,0,0,-5]];perimeter=orthogonalPerimeter;outlineConnect=0;targetShapes=umlLifeline;portConstraint=eastwest;newEdgeStyle={&quot;curved&quot;:0,&quot;rounded&quot;:0};" vertex="1" parent="_3x8DuWusRS5NxOKMBlc-16">
          <mxGeometry x="125" y="60" width="10" height="130" as="geometry" />
        </mxCell>
        <mxCell id="_3x8DuWusRS5NxOKMBlc-40" value="" style="html=1;points=[[0,0,0,0,5],[0,1,0,0,-5],[1,0,0,0,5],[1,1,0,0,-5]];perimeter=orthogonalPerimeter;outlineConnect=0;targetShapes=umlLifeline;portConstraint=eastwest;newEdgeStyle={&quot;curved&quot;:0,&quot;rounded&quot;:0};" vertex="1" parent="_3x8DuWusRS5NxOKMBlc-16">
          <mxGeometry x="122.5" y="320" width="15" height="80" as="geometry" />
        </mxCell>
        <mxCell id="_3x8DuWusRS5NxOKMBlc-18" value="3. Verifica existencia del paciente" style="html=1;verticalAlign=bottom;endArrow=block;edgeStyle=elbowEdgeStyle;elbow=vertical;curved=0;rounded=0;" edge="1" parent="1" source="_3x8DuWusRS5NxOKMBlc-33" target="_3x8DuWusRS5NxOKMBlc-34">
          <mxGeometry x="0.0043" relative="1" as="geometry">
            <mxPoint x="703.8333333333335" y="160" as="sourcePoint" />
            <Array as="points">
              <mxPoint x="808" y="160" />
            </Array>
            <mxPoint x="900" y="160" as="targetPoint" />
            <mxPoint as="offset" />
          </mxGeometry>
        </mxCell>
        <mxCell id="_3x8DuWusRS5NxOKMBlc-19" value="4. ConfirmaciÃ³n de paciente resgistrado" style="html=1;verticalAlign=bottom;endArrow=open;dashed=1;endSize=8;edgeStyle=elbowEdgeStyle;elbow=vertical;curved=0;rounded=0;" edge="1" parent="1" source="_3x8DuWusRS5NxOKMBlc-34">
          <mxGeometry relative="1" as="geometry">
            <mxPoint x="710" y="190" as="targetPoint" />
            <Array as="points">
              <mxPoint x="795" y="190" />
              <mxPoint x="820" y="170" />
              <mxPoint x="840" y="150" />
            </Array>
            <mxPoint x="909.5" y="190" as="sourcePoint" />
          </mxGeometry>
        </mxCell>
        <mxCell id="_3x8DuWusRS5NxOKMBlc-20" value="11. Valida y guarda datos de atenciÃ³n" style="html=1;verticalAlign=bottom;endArrow=block;edgeStyle=elbowEdgeStyle;elbow=vertical;curved=0;rounded=0;" edge="1" parent="1" source="_3x8DuWusRS5NxOKMBlc-38" target="_3x8DuWusRS5NxOKMBlc-40">
          <mxGeometry x="0.0068" relative="1" as="geometry">
            <mxPoint x="705" y="400" as="sourcePoint" />
            <Array as="points">
              <mxPoint x="808" y="400" />
            </Array>
            <mxPoint x="910" y="400" as="targetPoint" />
            <mxPoint as="offset" />
          </mxGeometry>
        </mxCell>
        <mxCell id="_3x8DuWusRS5NxOKMBlc-21" value="12. ConfirmaciÃ³n de guardado" style="html=1;verticalAlign=bottom;endArrow=open;dashed=1;endSize=8;edgeStyle=elbowEdgeStyle;elbow=vertical;curved=0;rounded=0;" edge="1" parent="1" source="_3x8DuWusRS5NxOKMBlc-40" target="_3x8DuWusRS5NxOKMBlc-38">
          <mxGeometry relative="1" as="geometry">
            <mxPoint x="705" y="420" as="targetPoint" />
            <Array as="points">
              <mxPoint x="795" y="420" />
              <mxPoint x="820" y="400" />
              <mxPoint x="840" y="380" />
            </Array>
            <mxPoint x="910" y="420" as="sourcePoint" />
          </mxGeometry>
        </mxCell>
        <mxCell id="_3x8DuWusRS5NxOKMBlc-27" value="7. Solicitud de Formulario" style="html=1;verticalAlign=bottom;endArrow=block;edgeStyle=elbowEdgeStyle;elbow=vertical;curved=0;rounded=0;" edge="1" parent="1" source="_3x8DuWusRS5NxOKMBlc-32" target="_3x8DuWusRS5NxOKMBlc-37">
          <mxGeometry x="0.0043" relative="1" as="geometry">
            <mxPoint x="297" y="280" as="sourcePoint" />
            <Array as="points">
              <mxPoint x="423.1666666666665" y="280" />
            </Array>
            <mxPoint x="552.6666666666665" y="280" as="targetPoint" />
            <mxPoint as="offset" />
          </mxGeometry>
        </mxCell>
        <mxCell id="_3x8DuWusRS5NxOKMBlc-28" value="8. Presenta formulario con campos obligatorios" style="html=1;verticalAlign=bottom;endArrow=open;dashed=1;endSize=8;edgeStyle=elbowEdgeStyle;elbow=vertical;curved=0;rounded=0;" edge="1" parent="1" source="_3x8DuWusRS5NxOKMBlc-37" target="_3x8DuWusRS5NxOKMBlc-32">
          <mxGeometry relative="1" as="geometry">
            <mxPoint x="297" y="320" as="targetPoint" />
            <Array as="points">
              <mxPoint x="383.1666666666665" y="320" />
              <mxPoint x="413.1666666666665" y="300" />
              <mxPoint x="433.1666666666665" y="280" />
            </Array>
            <mxPoint x="552.6666666666665" y="320" as="sourcePoint" />
          </mxGeometry>
        </mxCell>
        <mxCell id="_3x8DuWusRS5NxOKMBlc-42" value="Veterinario" style="text;html=1;align=center;verticalAlign=middle;resizable=0;points=[];autosize=1;strokeColor=none;fillColor=none;fontSize=16;" vertex="1" parent="1">
          <mxGeometry x="-340" width="100" height="30" as="geometry" />
        </mxCell>
      </root>
    </mxGraphModel>
  </diagram>
</mxfile>
